<svg xmlns="http://www.w3.org/2000/svg" viewBox="0 0 130 141.86"><defs><style>.cls-1{fill:#212121;}.cls-2{fill:#9dccfc;}.cls-3{fill:#58a8fd;}.cls-4{fill:#3c99fb;}</style></defs><title>Asset 4</title><g id="Layer_2" data-name="Layer 2"><g id="Layer_1-2" data-name="Layer 1"><path class="cls-1" d="M94.95,7.18H117.4A10.13,10.13,0,0,1,127.52,17.3v3.25a9,9,0,0,1-9,9H97.07A12.25,12.25,0,0,1,84.82,17.3v0A10.13,10.13,0,0,1,94.95,7.18Z" transform="translate(178.08 98.61) rotate(-141.67)"/><path class="cls-1" d="M22,113.86l-6,28H33l12-14Z"/><path class="cls-1" d="M13.21,7.18H34.66a9,9,0,0,1,9,9v3.25A10.13,10.13,0,0,1,33.54,29.55H11.09A10.13,10.13,0,0,1,1,19.43v0A12.25,12.25,0,0,1,13.21,7.18Z" transform="translate(-6.58 17.79) rotate(-38.33)"/><path class="cls-1" d="M107,113.86l6,28H96q-5.5-7-11-14Z"/><circle class="cls-2" cx="65" cy="67.86" r="65"/><path class="cls-3" d="M130,67.86a65,65,0,0,0-2.3-17.14A65,65,0,0,0,17.3,112,65,65,0,0,0,130,67.86Z"/><path class="cls-4" d="M44,111.86a64.66,64.66,0,0,0,2.65,18.35,65,65,0,0,0,80.7-80.71A65,65,0,0,0,44,111.86Z"/></g></g></svg>