<svg xmlns="http://www.w3.org/2000/svg" viewBox="0 0 168.58 138.16"><defs><style>.cls-1{fill:#ffd107;}</style></defs><title>Asset 1</title><g id="Layer_2" data-name="Layer 2"><g id="Layer_1-2" data-name="Layer 1"><rect class="cls-1" x="72.52" y="107.52" width="28.13" height="28.13" rx="8" transform="translate(-60.62 96.84) rotate(-45)"/><rect class="cls-1" x="72.52" y="72.52" width="28.13" height="28.13" rx="8" transform="translate(-35.86 86.58) rotate(-45)"/><path class="cls-1" d="M80.45,37.51H92.65a8,8,0,0,1,8,8V57.64a8,8,0,0,1-8,8H80.52a8,8,0,0,1-8-8V45.45A7.94,7.94,0,0,1,80.45,37.51Z" transform="translate(-11.11 76.33) rotate(-45)"/><rect class="cls-1" x="72.52" y="2.5" width="28.13" height="28.13" rx="8" transform="translate(13.64 66.08) rotate(-45)"/><rect class="cls-1" x="107.52" y="37.51" width="28.13" height="28.13" rx="8" transform="translate(-0.86 101.08) rotate(-45)"/><rect class="cls-1" x="37.51" y="2.5" width="28.13" height="28.13" rx="8" transform="translate(3.39 41.32) rotate(-45)"/><rect class="cls-1" x="109.99" y="5.46" width="23.2" height="23.2" rx="8" transform="translate(23.55 90.97) rotate(-45)"/><rect class="cls-1" x="40.27" y="40.37" width="22.62" height="22.62" rx="8" transform="translate(-21.43 51.61) rotate(-45)"/><rect class="cls-1" x="146.06" y="6.01" width="21.08" height="21.08" rx="8" transform="translate(34.16 115.58) rotate(-45)"/><rect class="cls-1" x="2.5" y="2.5" width="28.13" height="28.13" rx="8" transform="translate(-6.86 16.57) rotate(-45)"/><rect class="cls-1" x="144.6" y="39.43" width="24" height="24" rx="12" transform="translate(303.7 -22.93) rotate(135)"/><rect class="cls-1" x="4.6" y="36.49" width="24" height="24" rx="12" transform="translate(-29.43 25.94) rotate(-45)"/><circle class="cls-1" cx="122.08" cy="86.16" r="10"/><circle class="cls-1" cx="51.08" cy="86.16" r="10"/></g></g></svg>