<svg xmlns="http://www.w3.org/2000/svg" xmlns:xlink="http://www.w3.org/1999/xlink" viewBox="0 0 174 176.86"><defs><style>.cls-1{fill:none;}.cls-2{fill:#212121;}.cls-3{fill:#9dccfc;}.cls-4{clip-path:url(#clip-path);}.cls-5{fill:#58a8fd;}.cls-6{fill:#3c99fb;}</style><clipPath id="clip-path"><circle class="cls-1" cx="65" cy="67.86" r="65"/></clipPath></defs><title>Asset 3</title><g id="Layer_2" data-name="Layer 2"><g id="Layer_1-2" data-name="Layer 1"><path class="cls-2" d="M94.95,7.18H117.4A10.13,10.13,0,0,1,127.52,17.3v3.25a9,9,0,0,1-9,9H97.07A12.25,12.25,0,0,1,84.82,17.3v0A10.13,10.13,0,0,1,94.95,7.18Z" transform="translate(178.08 98.61) rotate(-141.67)"/><path class="cls-2" d="M22,113.86l-6,28H33l12-14Z"/><path class="cls-2" d="M13.21,7.18H34.66a9,9,0,0,1,9,9v3.25A10.13,10.13,0,0,1,33.54,29.55H11.09A10.13,10.13,0,0,1,1,19.43v0A12.25,12.25,0,0,1,13.21,7.18Z" transform="translate(-6.58 17.79) rotate(-38.33)"/><path class="cls-2" d="M107,113.86l6,28H96q-5.5-7-11-14Z"/><circle class="cls-3" cx="65" cy="67.86" r="65"/><g class="cls-4"><circle class="cls-5" cx="80" cy="94.86" r="65"/></g><g class="cls-4"><circle class="cls-6" cx="109" cy="111.86" r="65"/></g></g></g></svg>